<svg xmlns="http://www.w3.org/2000/svg" viewBox="0 0 76 76">
  <defs><linearGradient id="g" x1="10" y1="5" x2="67" y2="72"><stop stop-color="#65ec86"/><stop offset="1" stop-color="#18b943"/></linearGradient></defs>
  <rect width="76" height="76" rx="22" fill="url(#g)"/>
  <path d="M23.5 17.5c1.7-1 7.3 5.3 7.6 7 .3 1.5-3.1 4.8-4.5 6.2 2.5 6.1 7 10.6 13 13.1 1.5-1.5 4.7-4.9 6.3-4.6 1.7.3 8 5.9 7 7.6l-2.4 4.1c-1.3 2.1-4 3.1-6.4 2.4-11-3.2-20.2-12.4-23.4-23.4-.7-2.4.3-5.1 2.4-6.4l4.1-2.4Z" fill="#fff"/>
  <path d="M49 16v13M42.5 22.5h13" fill="none" stroke="#fff" stroke-width="3" stroke-linecap="round" opacity=".95"/>
</svg>
